<?xml version="1.0" standalone="no"?>
<!DOCTYPE svg PUBLIC "-//W3C//DTD SVG 20010904//EN"
 "http://www.w3.org/TR/2001/REC-SVG-20010904/DTD/svg10.dtd">
<svg version="1.0" xmlns="http://www.w3.org/2000/svg"
 width="700.000000pt" height="700.000000pt" viewBox="0 0 700.000000 700.000000"
 preserveAspectRatio="xMidYMid meet">
<metadata>
Created by potrace 1.11, written by Peter Selinger 2001-2013
</metadata>
<g transform="translate(0.000000,700.000000) scale(0.100000,-0.100000)"
fill="#000000" stroke="none">
<path d="M4314 6425 c-187 -34 -355 -102 -519 -210 -44 -29 -453 -269 -910
-533 l-830 -481 -80 21 c-113 30 -431 32 -550 4 -265 -62 -462 -170 -646 -355
-113 -113 -182 -207 -246 -336 -195 -389 -184 -845 30 -1228 165 -294 469
-529 795 -613 39 -10 72 -21 72 -25 0 -3 -21 -37 -46 -75 -205 -305 -271 -689
-180 -1048 148 -582 664 -986 1260 -986 270 0 510 73 741 225 44 29 450 268
903 530 l822 476 98 -22 c133 -29 345 -36 472 -15 288 47 525 167 727 367 192
191 322 439 368 703 20 115 20 337 0 452 -44 253 -162 486 -342 674 -171 180
-358 293 -598 361 -44 13 -81 24 -83 25 -2 1 18 33 44 70 54 79 123 219 153
314 86 263 87 550 4 814 -143 457 -546 808 -1022 890 -113 19 -334 20 -437 1z
m486 -673 c195 -64 351 -224 416 -427 33 -101 37 -254 10 -354 -69 -256 -277
-441 -540 -481 -141 -21 -305 13 -422 88 -32 21 -252 150 -489 286 -236 137
-436 254 -443 261 -11 10 71 61 415 260 235 137 447 261 471 277 57 39 154 84
222 102 81 23 274 16 360 -12z m-2980 -1174 c44 -14 129 -56 200 -99 69 -41
299 -176 512 -300 293 -170 384 -227 375 -235 -7 -6 -201 -121 -432 -254 -231
-134 -447 -260 -481 -281 -154 -98 -302 -133 -459 -109 -221 33 -405 168 -500
365 -91 188 -86 408 12 598 55 107 174 223 284 275 46 23 116 48 154 56 98 22
238 15 335 -16z m3680 -892 c201 -43 362 -165 451 -340 65 -126 88 -318 54
-451 -46 -182 -174 -343 -335 -423 -118 -58 -201 -75 -325 -69 -131 6 -206 33
-366 129 -68 41 -294 173 -501 293 -208 120 -378 221 -378 224 0 3 152 94 337
201 185 107 391 228 457 267 243 145 336 181 476 182 36 0 94 -6 130 -13z
m-2903 -1201 c43 -13 110 -44 148 -68 39 -24 259 -153 490 -287 231 -133 426
-248 433 -254 10 -10 -68 -60 -390 -246 -222 -129 -449 -262 -506 -296 -153
-93 -208 -109 -367 -109 -107 0 -143 4 -200 22 -196 62 -357 226 -421 428 -32
100 -36 254 -10 354 97 362 469 569 823 456z"/>
</g>
</svg>
